<?xml version="1.0" encoding="UTF-8" standalone="no"?>
<!DOCTYPE svg PUBLIC "-//W3C//DTD SVG 1.1//EN" "http://www.w3.org/Graphics/SVG/1.1/DTD/svg11.dtd">
<svg width="100%" height="100%" viewBox="0 0 233 30" version="1.1" xmlns="http://www.w3.org/2000/svg" xmlns:xlink="http://www.w3.org/1999/xlink" xml:space="preserve" xmlns:serif="http://www.serif.com/" style="fill-rule:evenodd;clip-rule:evenodd;stroke-linejoin:round;stroke-miterlimit:2;">
    <path d="M13.9,4.8L15.5,4.8L15.5,11L13.9,11L13.9,4.8ZM6.8,8.4L10.7,12.4L11.8,11.2L8,7.2L6.8,8.4ZM17.6,11.3L18.7,12.5L22.6,8.5L21.5,7.3L17.6,11.3ZM84.3,20.7C83.5,21.2 82.6,21.4 81.6,21.4C80.5,21.4 79.6,21.1 78.7,20.6C77.8,20.1 77.1,19.4 76.6,18.5C76.1,17.6 75.8,16.6 75.8,15.5C75.8,14.4 76.1,13.4 76.6,12.5C77.1,11.6 77.8,10.9 78.7,10.4C79.6,9.9 80.5,9.6 81.6,9.6C82.5,9.6 83.3,9.8 84.1,10.2C84.9,10.6 85.5,11.1 86.1,11.8L87.5,10.6C86.8,9.8 85.9,9.1 84.9,8.6C83.9,8.1 82.8,7.9 81.6,7.9C80.2,7.9 78.9,8.2 77.7,8.9C76.5,9.6 75.6,10.5 74.9,11.7C74.2,12.9 73.9,14.2 73.9,15.6C73.9,17 74.2,18.3 74.9,19.5C75.6,20.7 76.5,21.6 77.7,22.3C78.9,23 80.2,23.3 81.6,23.3C82.9,23.3 84.1,23 85.2,22.4C86.3,21.8 87.2,21 87.9,20L86.3,18.9C85.8,19.6 85.1,20.2 84.3,20.7ZM68.9,22.9L70.9,22.9L70.9,8L68.9,8L68.9,22.9ZM29.4,6.3L29.4,24.6C29.4,27.5 27.1,29.9 24.3,29.9L5.1,29.9C2.3,30 0,27.6 0,24.7L0,6.3C0,3.4 2.3,1 5.1,1L24.2,1C27.1,1 29.4,3.4 29.4,6.3ZM27.8,6.3C27.8,4.3 26.2,2.6 24.3,2.6L5.1,2.6C3.2,2.6 1.6,4.2 1.6,6.3L1.6,24.6C1.6,26.6 3.2,28.3 5.1,28.3L13.9,28.3L13.9,17.5L7.7,24L6.6,22.8L12.8,16.3L4,16.3L4,14.6L25.4,14.6L25.4,16.3L16.6,16.3L22.8,22.8L21.7,24L15.5,17.5L15.5,28.3L24.2,28.3C26.1,28.3 27.7,26.7 27.7,24.6L27.8,6.3ZM62.2,8.5C61.3,8 60.4,7.8 59.4,7.8C58.3,7.8 57.3,8.1 56.4,8.6C55.5,9.1 54.8,9.8 54.2,10.8C54.2,10.9 54.1,10.9 54.1,11C54,10.8 54,10.7 53.9,10.5C53.4,9.7 52.8,9 52.1,8.6C51.3,8.1 50.5,7.9 49.5,7.9C48.5,7.9 47.6,8.2 46.8,8.7C46,9.2 45.3,9.9 44.8,10.8L44.8,8L43,8L43,23L45,23L45,14.2C45,13.4 45.2,12.6 45.6,11.9C46,11.2 46.5,10.7 47.1,10.3C47.7,9.9 48.4,9.7 49.2,9.7C49.9,9.7 50.6,9.9 51.2,10.2C51.8,10.6 52.3,11.1 52.6,11.7C52.9,12.4 53.1,13.1 53.1,13.9L53.1,23L55.1,23L55.1,14.2C55.1,13.4 55.3,12.6 55.7,11.9C56.1,11.2 56.6,10.7 57.2,10.3C57.8,9.9 58.5,9.7 59.3,9.7C60,9.7 60.7,9.9 61.3,10.2C61.9,10.6 62.4,11.1 62.7,11.7C63,12.4 63.2,13.1 63.2,13.9L63.2,23L65.2,23L65.2,13.3C65.2,12.3 65,11.3 64.5,10.5C63.7,9.6 63,8.9 62.2,8.5ZM68.7,4.6L71,4.6L71,2.4L68.7,2.4L68.7,4.6ZM207.5,8.5C206.6,8 205.6,7.7 204.4,7.7C203.2,7.7 202,8 201,8.6C200.1,9.1 199.4,9.8 198.8,10.7L198.8,8L196.9,8L196.9,23L198.9,23L198.9,15C198.9,13.9 199.1,12.9 199.6,12.1C200.1,11.3 200.7,10.6 201.5,10.2C202.3,9.7 203.1,9.5 204,9.5C204.9,9.5 205.6,9.7 206.3,10.1C207,10.5 207.5,11 207.9,11.7C208.3,12.4 208.5,13.2 208.5,14.1L208.5,22.8L210.5,22.8L210.5,13.7C210.5,12.5 210.2,11.5 209.7,10.6C209.1,9.8 208.4,9.1 207.5,8.5ZM175.6,21.2C175.3,21.3 175,21.4 174.7,21.4C174.2,21.4 173.8,21.3 173.4,21.1C173,20.9 172.7,20.6 172.5,20.2C172.3,19.8 172.2,19.4 172.2,19L172.2,9.8L176.7,9.8L176.7,8L172.2,8L172.2,3.4L170.2,3.4L170.2,8L167.5,8L167.5,9.8L170.2,9.8L170.2,18.9C170.2,19.7 170.4,20.4 170.8,21C171.2,21.6 171.7,22.2 172.3,22.5C173,22.9 173.7,23.1 174.5,23.1C175.1,23.1 175.7,23 176.2,22.8C176.7,22.6 177.2,22.3 177.6,21.8L176.4,20.6C176.2,20.9 175.9,21 175.6,21.2ZM193.1,11.5C193.8,12.7 194.1,14 194.1,15.4C194.1,16.8 193.8,18.1 193.1,19.3C192.4,20.5 191.5,21.4 190.3,22.1C189.1,22.8 187.8,23.1 186.4,23.1C185,23.1 183.7,22.8 182.5,22.1C181.3,21.4 180.4,20.5 179.7,19.3C179,18.1 178.7,16.8 178.7,15.4C178.7,14 179,12.7 179.7,11.5C180.4,10.3 181.3,9.4 182.5,8.7C183.7,8 185,7.7 186.4,7.7C187.8,7.7 189.1,8 190.3,8.7C191.4,9.4 192.4,10.4 193.1,11.5ZM192.1,15.5C192.1,14.4 191.8,13.4 191.3,12.5C190.8,11.6 190.1,10.9 189.2,10.4C188.3,9.9 187.3,9.6 186.3,9.6C185.2,9.6 184.3,9.9 183.4,10.4C182.5,10.9 181.8,11.6 181.3,12.5C180.8,13.4 180.5,14.4 180.5,15.5C180.5,16.6 180.8,17.6 181.3,18.5C181.8,19.4 182.5,20.1 183.4,20.6C184.3,21.1 185.3,21.4 186.3,21.4C187.4,21.4 188.3,21.1 189.2,20.6C190.1,20.1 190.8,19.4 191.3,18.5C191.9,17.5 192.1,16.6 192.1,15.5ZM94.2,8.9C93.3,9.5 92.6,10.3 92.1,11.3L92.1,8L90.3,8L90.3,23L92.3,23L92.3,16C92.3,14.8 92.5,13.8 92.9,12.9C93.3,12 93.9,11.3 94.7,10.8C95.5,10.3 96.5,10 97.7,9.8L97.5,7.7C96.2,7.9 95.2,8.2 94.2,8.9ZM232.5,21.8L226.6,15.2L232.2,9L230.8,7.7L225.3,13.9L219.9,7.7L218.4,9L224,15.2L218.1,21.8L219.5,23.1L225.3,16.5L231.1,23.1L232.5,21.8ZM165.3,11.5C166,12.7 166.3,14 166.3,15.4C166.3,16.8 166,18.1 165.3,19.3C164.6,20.5 163.7,21.4 162.5,22.1C161.3,22.8 160,23.1 158.6,23.1C157.2,23.1 155.9,22.8 154.7,22.1C153.5,21.4 152.6,20.5 151.9,19.3C151.2,18.1 150.9,16.8 150.9,15.4C150.9,14 151.2,12.7 151.9,11.5C152.6,10.3 153.5,9.4 154.7,8.7C155.9,8 157.2,7.7 158.6,7.7C160,7.7 161.3,8 162.5,8.7C163.7,9.4 164.6,10.4 165.3,11.5ZM164.3,15.5C164.3,14.4 164,13.4 163.5,12.5C163,11.6 162.3,10.9 161.4,10.4C160.5,9.9 159.5,9.6 158.5,9.6C157.4,9.6 156.5,9.9 155.6,10.4C154.7,10.9 154,11.6 153.5,12.5C153,13.4 152.7,14.4 152.7,15.5C152.7,16.6 153,17.6 153.5,18.5C154,19.4 154.7,20.1 155.6,20.6C156.5,21.1 157.5,21.4 158.5,21.4C159.6,21.4 160.5,21.1 161.4,20.6C162.3,20.1 163,19.4 163.5,18.5C164.1,17.5 164.3,16.6 164.3,15.5ZM131,11.6C131.7,12.8 132,14.1 132,15.5C132,16.9 131.7,18.2 131,19.4C130.3,20.6 129.4,21.5 128.3,22.2C127.2,22.9 125.9,23.2 124.5,23.2C123.1,23.2 121.9,22.9 120.7,22.2C119.8,21.7 119.1,21 118.5,20.2L118.5,29L116.5,29L116.5,8L118.4,8L118.4,10.8C119,10 119.7,9.3 120.6,8.8C121.7,8.1 123,7.8 124.4,7.8C125.8,7.8 127,8.1 128.2,8.8C129.5,9.5 130.4,10.4 131,11.6ZM130.1,15.4C130.1,14.3 129.8,13.3 129.3,12.4C128.8,11.5 128.1,10.8 127.2,10.3C126.3,9.8 125.3,9.5 124.3,9.5C123.2,9.5 122.3,9.8 121.4,10.3C120.5,10.8 119.8,11.5 119.3,12.4C118.8,13.3 118.5,14.3 118.5,15.4C118.5,16.5 118.8,17.5 119.3,18.4C119.8,19.3 120.5,20 121.4,20.5C122.3,21 123.3,21.3 124.3,21.3C125.4,21.3 126.4,21 127.2,20.5C128.1,20 128.8,19.3 129.3,18.4C129.8,17.5 130.1,16.5 130.1,15.4ZM112.8,11.5C113.5,12.7 113.8,14 113.8,15.4C113.8,16.8 113.5,18.1 112.8,19.3C112.1,20.5 111.2,21.4 110,22.1C108.8,22.8 107.5,23.1 106.1,23.1C104.7,23.1 103.4,22.8 102.2,22.1C101,21.4 100.1,20.5 99.4,19.3C98.7,18.1 98.4,16.8 98.4,15.4C98.4,14 98.7,12.7 99.4,11.5C100.1,10.3 101,9.4 102.2,8.7C103.4,8 104.7,7.7 106.1,7.7C107.5,7.7 108.8,8 110,8.7C111.2,9.4 112.1,10.4 112.8,11.5ZM111.9,15.5C111.9,14.4 111.6,13.4 111.1,12.5C110.6,11.6 109.9,10.9 109,10.4C108.1,9.9 107.1,9.6 106.1,9.6C105,9.6 104.1,9.9 103.2,10.4C102.3,10.9 101.6,11.6 101.1,12.5C100.6,13.4 100.3,14.4 100.3,15.5C100.3,16.6 100.6,17.6 101.1,18.5C101.6,19.4 102.3,20.1 103.2,20.6C104.1,21.1 105.1,21.4 106.1,21.4C107.2,21.4 108.1,21.1 109,20.6C109.9,20.1 110.6,19.4 111.1,18.5C111.6,17.5 111.9,16.6 111.9,15.5ZM145.4,8.5C144.5,8 143.5,7.7 142.3,7.7C141.1,7.7 139.9,8 138.9,8.6C138,9.1 137.3,9.8 136.8,10.6L136.8,0L134.8,0L134.8,22.9L136.8,22.9L136.8,15C136.8,13.9 137,12.9 137.5,12.1C138,11.3 138.6,10.6 139.4,10.2C140.2,9.7 141,9.5 141.9,9.5C142.8,9.5 143.5,9.7 144.2,10.1C144.9,10.5 145.4,11 145.8,11.7C146.2,12.4 146.4,13.2 146.4,14.1L146.4,22.8L148.4,22.8L148.4,13.7C148.4,12.5 148.1,11.5 147.6,10.6C147,9.8 146.3,9.1 145.4,8.5Z" style="fill:rgb(4,52,92);fill-rule:nonzero;"/>
</svg>
